<mxfile host="app.diagrams.net" modified="2024-02-20T09:09:27.431Z" agent="Mozilla/5.0 (Windows NT 10.0; Win64; x64) AppleWebKit/537.36 (KHTML, like Gecko) Chrome/121.0.0.0 Safari/537.36 Edg/121.0.0.0" version="23.1.5" etag="1diOvMGIts0x1vZhz4YO" type="github">
  <diagram name="第 1 页" id="4F8lzbKff_h6HI5Jmzsh">
    <mxGraphModel>
      <root>
        <mxCell id="0" />
        <mxCell id="1" parent="0" />
      </root>
    </mxGraphModel>
  </diagram>
</mxfile>
